<!-- AVANT: horizontal lockup for dark UI (#0E0720 surfaces). Symbol + wide wordmark. Off-white #F8F6FF text; gold apex only on first A. -->
<svg xmlns="http://www.w3.org/2000/svg" viewBox="0 0 196 48" fill="none" aria-label="AVANT">
  <g aria-hidden="true">
    <rect width="48" height="48" rx="10.75" fill="#4B1FA8"/>
    <path fill="#E8B800" d="M24 9.2 32.4 22.9h-6.35l2.05 15.9L15.55 23.55h6.9L24 9.2Z"/>
    <circle cx="40" cy="10" r="1.75" fill="#00E5C3"/>
  </g>
  <g fill="#F8F6FF" transform="translate(56 6)" aria-hidden="true">
    <!-- A (custom apex flash) -->
    <path d="M0 32 7.2 5.2h3.95L18.5 32h-3.85l-1.75-6.65H5.6L3.85 32H0Z"/>
    <path fill="#E8B800" d="M8.85 5.2 11.05 9.85 6.65 9.85 8.85 5.2Z"/>
    <!-- V -->
    <path d="M21.5 5.2 28.65 32h3.55L39.35 5.2h-3.15l-5.45 20.85L24.65 5.2h-3.15Z"/>
    <!-- A -->
    <path d="M42.5 32l7.2-26.8h3.95L60.8 32H57l-1.75-6.65H48.1L46.35 32h-3.85Z"/>
    <!-- N -->
    <path d="M63.5 5.2V32h3.15V11.1L81.05 32h3.2V5.2h-3.15v20.9L66.65 5.2H63.5Z"/>
    <!-- T (extended bar) -->
    <path d="M86.5 5.2h28.2v3.95H101.35V32h-3.15V9.15H86.5V5.2Z"/>
  </g>
</svg>
